<svg width="22" height="17" viewBox="0 0 22 17" fill="none" xmlns="http://www.w3.org/2000/svg">
<path d="M0 1V17H5V15H2V3H5V1H0Z" fill="#1FCA80"/>
<path d="M17 1V3H20V15H17V17H22V1" fill="#1FCA80"/>
<path d="M6.2 5.875V7.125C6.2 7.46875 5.93 7.75 5.6 7.75H5V10.25H5.6C5.93 10.25 6.2 10.5312 6.2 10.875V12.125C6.2 13.1562 7.01 14 8 14H9.8V12.75H8C7.67 12.75 7.4 12.4688 7.4 12.125V10.875C7.4 10.0625 6.896 9.3625 6.2 9.10625V8.89375C6.896 8.6375 7.4 7.9375 7.4 7.125V5.875C7.4 5.53125 7.67 5.25 8 5.25H9.8V4H8C7.01 4 6.2 4.84375 6.2 5.875ZM16.4 7.75C16.07 7.75 15.8 7.46875 15.8 7.125V5.875C15.8 4.84375 14.99 4 14 4H12.2V5.25H14C14.33 5.25 14.6 5.53125 14.6 5.875V7.125C14.6 7.9375 15.104 8.6375 15.8 8.89375V9.10625C15.104 9.3625 14.6 10.0563 14.6 10.875V12.125C14.6 12.4688 14.33 12.75 14 12.75H12.2V14H14C14.99 14 15.8 13.1562 15.8 12.125V10.875C15.8 10.5312 16.07 10.25 16.4 10.25H17V7.75H16.4Z" fill="#DEB714"/>
</svg>
