<svg width="11" height="7" viewBox="0 0 11 7" fill="none" xmlns="http://www.w3.org/2000/svg">
<mask id="path-1-inside-1_96_641" fill="white">
<path d="M0 0.555786L5.5 6.05579L11 0.555786"/>
</mask>
<path d="M1.72848 -1.1727L0 -2.90118L-3.45697 0.555786L-1.72848 2.28427L1.72848 -1.1727ZM5.5 6.05579L3.77152 7.78427C4.72613 8.73888 6.27387 8.73888 7.22848 7.78427L5.5 6.05579ZM12.7285 2.28427L14.457 0.555786L11 -2.90118L9.27152 -1.1727L12.7285 2.28427ZM-1.72848 2.28427L3.77152 7.78427L7.22848 4.3273L1.72848 -1.1727L-1.72848 2.28427ZM7.22848 7.78427L12.7285 2.28427L9.27152 -1.1727L3.77152 4.3273L7.22848 7.78427Z" fill="#747474" mask="url(#path-1-inside-1_96_641)"/>
</svg>
