<svg width="7" height="12" viewBox="0 0 7 12" fill="none" xmlns="http://www.w3.org/2000/svg">
<mask id="path-1-inside-1_96_643" fill="white">
<path d="M0.75 11.25L6.25 5.75L0.75 0.250001"/>
</mask>
<path d="M-0.978483 9.52152L-2.70697 11.25L0.75 14.707L2.47848 12.9785L-0.978483 9.52152ZM6.25 5.75L7.97848 7.47848C8.9331 6.52387 8.9331 4.97613 7.97848 4.02152L6.25 5.75ZM2.47848 -1.47848L0.749999 -3.20697L-2.70697 0.250001L-0.978484 1.97848L2.47848 -1.47848ZM2.47848 12.9785L7.97848 7.47848L4.52152 4.02152L-0.978483 9.52152L2.47848 12.9785ZM7.97848 4.02152L2.47848 -1.47848L-0.978484 1.97848L4.52152 7.47848L7.97848 4.02152Z" fill="#747474" mask="url(#path-1-inside-1_96_643)"/>
</svg>
