<svg width="18" height="18" viewBox="0 0 18 18" fill="none" xmlns="http://www.w3.org/2000/svg">
<g clip-path="url(#clip0_106_1521)">
<mask id="mask0_106_1521" style="mask-type:luminance" maskUnits="userSpaceOnUse" x="0" y="0" width="18" height="18">
<path d="M18 0H0V18H18V0Z" fill="white"/>
</mask>
<g mask="url(#mask0_106_1521)">
<path d="M1.57256 9C2.65381 12.0594 5.57186 14.25 8.9997 14.25C12.4275 14.25 15.3455 12.0594 16.4268 9C15.3455 5.94059 12.4275 3.75 8.9997 3.75C5.57186 3.75 2.65381 5.94059 1.57256 9ZM0.0669121 8.772C1.27381 4.99023 4.81576 2.25 8.9997 2.25C13.1836 2.25 16.7255 4.99023 17.9324 8.772L18.0052 9L17.9324 9.228C16.7255 13.0098 13.1836 15.75 8.9997 15.75C4.81576 15.75 1.27381 13.0098 0.0669121 9.228L-0.00585938 9L0.0669121 8.772ZM8.99992 6.75C7.75725 6.75 6.74992 7.75733 6.74992 9C6.74992 10.2427 7.75725 11.25 8.99992 11.25C10.2425 11.25 11.2499 10.2427 11.2499 9C11.2499 7.75733 10.2425 6.75 8.99992 6.75ZM5.24992 9C5.24992 6.92894 6.92884 5.25 8.99992 5.25C11.071 5.25 12.7499 6.92894 12.7499 9C12.7499 11.071 11.071 12.75 8.99992 12.75C6.92884 12.75 5.24992 11.071 5.24992 9Z" fill="#DCDCDC"/>
</g>
</g>
<defs>
<clipPath id="clip0_106_1521">
<rect width="18" height="18" fill="white"/>
</clipPath>
</defs>
</svg>
