<svg width="22" height="16" viewBox="0 0 22 16" fill="none" xmlns="http://www.w3.org/2000/svg">
<path d="M13.0002 15H15.0002C15.5307 15 16.0394 14.7893 16.4145 14.4142C16.7895 14.0391 17.0002 13.5304 17.0002 13V10.562C17.0003 10.116 17.1495 9.68284 17.424 9.33133C17.6985 8.97982 18.0826 8.73015 18.5152 8.622L20.0303 8.242C20.2823 8.179 20.2823 7.821 20.0303 7.757L18.5152 7.379C18.0826 7.27085 17.6985 7.02118 17.424 6.66967C17.1495 6.31816 17.0003 5.88499 17.0002 5.439V1L13.0002 1M9.00025 1L7.00025 1C6.46982 1 5.96111 1.21071 5.58604 1.58579C5.21096 1.96086 5.00025 2.46957 5.00025 3L5.00025 5.438C5.00018 5.88399 4.85105 6.31716 4.57654 6.66867C4.30204 7.02018 3.91793 7.26985 3.48525 7.378L1.97025 7.758C1.71825 7.821 1.71825 8.179 1.97025 8.243L3.48525 8.621C3.91793 8.72915 4.30204 8.97882 4.57654 9.33033C4.85105 9.68184 5.00018 10.115 5.00025 10.561V15L9.00025 15" stroke="#DCDCDC" stroke-width="2"/>
</svg>
