<svg width="30" height="28" viewBox="0 0 30 28" fill="none" xmlns="http://www.w3.org/2000/svg">
<path d="M13.75 14.0002C13.75 14.6445 14.3096 15.1668 15 15.1668C15.6904 15.1668 16.25 14.6445 16.25 14.0002C16.25 13.3558 15.6904 12.8335 15 12.8335C14.3096 12.8335 13.75 13.3558 13.75 14.0002Z" stroke="#D1D1D1" stroke-width="2.33333" stroke-linecap="round" stroke-linejoin="round"/>
<path d="M13.75 22.1667C13.75 22.811 14.3096 23.3333 15 23.3333C15.6904 23.3333 16.25 22.811 16.25 22.1667C16.25 21.5223 15.6904 21 15 21C14.3096 21 13.75 21.5223 13.75 22.1667Z" stroke="#D1D1D1" stroke-width="2.33333" stroke-linecap="round" stroke-linejoin="round"/>
<path d="M13.75 5.83317C13.75 6.4775 14.3096 6.99984 15 6.99984C15.6904 6.99984 16.25 6.4775 16.25 5.83317C16.25 5.18884 15.6904 4.6665 15 4.6665C14.3096 4.6665 13.75 5.18884 13.75 5.83317Z" stroke="#D1D1D1" stroke-width="2.33333" stroke-linecap="round" stroke-linejoin="round"/>
</svg>
