<svg width="143" height="38" viewBox="0 0 143 38" fill="none" xmlns="http://www.w3.org/2000/svg">
<rect x="114.444" y="7.48608" width="28.5557" height="26.7709" rx="2.67709" fill="#DEB714"/>
<path d="M121.62 23.5043C121.62 23.1043 121.513 22.7643 121.3 22.4843C121.087 22.2043 120.74 22.0643 120.26 22.0643H119.3V19.7443H120.26C120.74 19.7443 121.087 19.6043 121.3 19.3243C121.513 19.0443 121.62 18.7043 121.62 18.3043V15.7443C121.62 14.9709 121.753 14.3443 122.02 13.8643C122.3 13.3709 122.693 13.0109 123.2 12.7843C123.72 12.5443 124.353 12.4243 125.1 12.4243H126.88V14.4843H125.4C124.987 14.4843 124.673 14.5909 124.46 14.8043C124.26 15.0176 124.16 15.3509 124.16 15.8043V18.4043C124.16 19.1243 123.973 19.6976 123.6 20.1243C123.227 20.5376 122.74 20.7909 122.14 20.8843V20.9243C122.74 21.0043 123.227 21.2576 123.6 21.6843C123.973 22.1109 124.16 22.6843 124.16 23.4043V26.0043C124.16 26.4576 124.26 26.7909 124.46 27.0043C124.673 27.2176 124.987 27.3243 125.4 27.3243H126.88V29.3843H125.1C124.353 29.3843 123.72 29.2643 123.2 29.0243C122.693 28.7976 122.3 28.4376 122.02 27.9443C121.753 27.4643 121.62 26.8376 121.62 26.0643V23.5043ZM131.719 27.3243C132.146 27.3243 132.459 27.2176 132.659 27.0043C132.859 26.7909 132.959 26.4576 132.959 26.0043V23.4043C132.959 22.6843 133.146 22.1109 133.519 21.6843C133.906 21.2576 134.399 21.0043 134.999 20.9243V20.8843C134.399 20.7909 133.906 20.5376 133.519 20.1243C133.146 19.6976 132.959 19.1243 132.959 18.4043V15.8043C132.959 15.3509 132.859 15.0176 132.659 14.8043C132.459 14.5909 132.146 14.4843 131.719 14.4843H130.239V12.4243H132.039C132.773 12.4243 133.399 12.5443 133.919 12.7843C134.439 13.0109 134.833 13.3709 135.099 13.8643C135.366 14.3443 135.499 14.9709 135.499 15.7443V18.3043C135.499 18.7043 135.606 19.0443 135.819 19.3243C136.033 19.6043 136.379 19.7443 136.859 19.7443H137.819V22.0643H136.859C136.379 22.0643 136.033 22.2043 135.819 22.4843C135.606 22.7643 135.499 23.1043 135.499 23.5043V26.0643C135.499 26.8376 135.366 27.4643 135.099 27.9443C134.833 28.4376 134.439 28.7976 133.919 29.0243C133.399 29.2643 132.773 29.3843 132.039 29.3843H130.239V27.3243H131.719Z" fill="white"/>
<path d="M1.68 13.2938H3.98V22.2338C3.98 23.5405 4.24 24.4738 4.76 25.0338C5.28 25.5938 6.07333 25.8738 7.14 25.8738C8.22 25.8738 9.02 25.5938 9.54 25.0338C10.06 24.4738 10.32 23.5405 10.32 22.2338V13.2938H12.62V22.1938C12.62 24.0738 12.16 25.5005 11.24 26.4738C10.32 27.4472 8.95333 27.9338 7.14 27.9338C5.3 27.9338 3.92667 27.4472 3.02 26.4738C2.12667 25.5005 1.68 24.0738 1.68 22.1938V13.2938ZM15.8736 27.6938V20.8338C15.8736 20.5672 15.8669 20.2272 15.8536 19.8138C15.8536 19.3872 15.8403 18.9672 15.8136 18.5538C15.8003 18.1405 15.7669 17.8138 15.7136 17.5738L15.7536 17.4138C16.1269 17.2672 16.5803 17.1272 17.1136 16.9938C17.6603 16.8605 18.2136 16.7538 18.7736 16.6738C19.3469 16.5938 19.8603 16.5538 20.3136 16.5538C20.9936 16.5538 21.6269 16.6272 22.2136 16.7738C22.8003 16.9072 23.3269 17.1538 23.7936 17.5138C24.2603 17.8605 24.6203 18.3472 24.8736 18.9738C25.1403 19.5872 25.2736 20.3738 25.2736 21.3338V27.6938H23.0336V21.4738C23.0336 20.6605 22.9136 20.0338 22.6736 19.5938C22.4469 19.1538 22.1069 18.8538 21.6536 18.6938C21.2136 18.5205 20.6869 18.4338 20.0736 18.4338C19.6603 18.4338 19.2269 18.4805 18.7736 18.5738C18.3203 18.6672 17.9203 18.7738 17.5736 18.8938L17.9336 18.2738C18.0003 18.4738 18.0469 18.7272 18.0736 19.0338C18.1003 19.3405 18.1136 19.6738 18.1136 20.0338V27.6938H15.8736ZM29.6019 14.9538C29.2285 14.9538 28.9085 14.8338 28.6419 14.5938C28.3752 14.3538 28.2419 14.0272 28.2419 13.6138C28.2419 13.2005 28.3752 12.8738 28.6419 12.6338C28.9085 12.3938 29.2285 12.2738 29.6019 12.2738C30.0019 12.2738 30.3285 12.3938 30.5819 12.6338C30.8352 12.8738 30.9619 13.2005 30.9619 13.6138C30.9619 14.0272 30.8352 14.3538 30.5819 14.5938C30.3285 14.8338 30.0019 14.9538 29.6019 14.9538ZM28.4819 27.6938V20.2138C28.4819 19.9472 28.4752 19.6072 28.4619 19.1938C28.4619 18.7672 28.4485 18.3472 28.4219 17.9338C28.4085 17.5205 28.3752 17.1938 28.3219 16.9538L28.3619 16.7938H30.7219V27.6938H28.4819ZM34.0003 27.6938V13.2938H35.9403L41.0003 21.2738H40.0403L45.0803 13.2938H47.0003V27.6938H44.7003V16.8938L45.2003 17.0338L41.2803 23.1538H39.7203L35.8203 17.0538L36.3203 16.9138V27.6938H34.0003ZM49.4605 22.2138C49.4605 21.0005 49.6738 19.9738 50.1005 19.1338C50.5405 18.2938 51.1471 17.6538 51.9205 17.2138C52.7071 16.7738 53.6071 16.5538 54.6205 16.5538C55.6338 16.5538 56.5271 16.7738 57.3005 17.2138C58.0738 17.6538 58.6738 18.2938 59.1005 19.1338C59.5405 19.9738 59.7605 21.0005 59.7605 22.2138C59.7605 23.4272 59.5405 24.4538 59.1005 25.2938C58.6738 26.1338 58.0738 26.7738 57.3005 27.2138C56.5271 27.6538 55.6338 27.8738 54.6205 27.8738C53.5805 27.8738 52.6738 27.6538 51.9005 27.2138C51.1271 26.7738 50.5271 26.1338 50.1005 25.2938C49.6738 24.4538 49.4605 23.4272 49.4605 22.2138ZM51.7405 22.2138C51.7405 23.4672 51.9871 24.4205 52.4805 25.0738C52.9738 25.7138 53.6871 26.0338 54.6205 26.0338C55.5405 26.0338 56.2471 25.7138 56.7405 25.0738C57.2338 24.4205 57.4805 23.4672 57.4805 22.2138C57.4805 20.9338 57.2338 19.9738 56.7405 19.3338C56.2471 18.6938 55.5405 18.3738 54.6205 18.3738C53.6871 18.3738 52.9738 18.6938 52.4805 19.3338C51.9871 19.9738 51.7405 20.9338 51.7405 22.2138ZM67.2233 27.9338C66.0099 27.9338 64.9699 27.7138 64.1033 27.2738C63.2499 26.8338 62.5966 26.1872 62.1433 25.3338C61.6899 24.4805 61.4633 23.4405 61.4633 22.2138C61.4633 21.0272 61.7033 20.0138 62.1833 19.1738C62.6633 18.3205 63.3366 17.6738 64.2033 17.2338C65.0699 16.7805 66.0833 16.5538 67.2433 16.5538C67.7099 16.5538 68.1233 16.5872 68.4833 16.6538C68.8566 16.7205 69.1433 16.8005 69.3433 16.8938L69.2833 18.7338C69.1233 18.6672 68.8899 18.5938 68.5833 18.5138C68.2899 18.4338 67.9166 18.3938 67.4633 18.3938C66.2499 18.3938 65.3233 18.7272 64.6833 19.3938C64.0566 20.0472 63.7433 20.9872 63.7433 22.2138C63.7433 23.0805 63.8766 23.8005 64.1433 24.3738C64.4233 24.9472 64.8299 25.3805 65.3633 25.6738C65.9099 25.9538 66.5766 26.0938 67.3633 26.0938C67.8166 26.0938 68.2099 26.0538 68.5433 25.9738C68.8899 25.8938 69.1966 25.7938 69.4633 25.6738L69.1633 26.3138C69.0966 26.0872 69.0499 25.8205 69.0233 25.5138C68.9966 25.1938 68.9833 24.8605 68.9833 24.5138V15.9938C68.9833 15.7138 68.9766 15.3538 68.9633 14.9138C68.9499 14.4738 68.9299 14.0472 68.9033 13.6338C68.8899 13.2072 68.8566 12.8805 68.8033 12.6538L68.8433 12.4938H71.2233V23.7138C71.2233 23.9805 71.2233 24.3272 71.2233 24.7538C71.2366 25.1805 71.2499 25.6005 71.2633 26.0138C71.2899 26.4138 71.3299 26.7338 71.3833 26.9738L71.3233 27.1338C70.7633 27.3472 70.1433 27.5338 69.4633 27.6938C68.7966 27.8538 68.0499 27.9338 67.2233 27.9338ZM79.7819 27.8738C78.7819 27.8738 77.8952 27.7538 77.1219 27.5138C76.3619 27.2738 75.7219 26.9205 75.2019 26.4538C74.6819 25.9738 74.2885 25.3805 74.0219 24.6738C73.7685 23.9672 73.6419 23.1472 73.6419 22.2138C73.6419 21.0538 73.8552 20.0538 74.2819 19.2138C74.7085 18.3605 75.3085 17.7072 76.0819 17.2538C76.8552 16.7872 77.7685 16.5538 78.8219 16.5538C80.0085 16.5538 80.9685 16.8005 81.7019 17.2938C82.4352 17.7738 82.9619 18.4538 83.2819 19.3338C83.6152 20.2005 83.7552 21.2072 83.7019 22.3538L83.6819 22.9538H75.1419V21.3138H81.4419V21.1538C81.4419 20.2338 81.2219 19.5405 80.7819 19.0738C80.3419 18.5938 79.6819 18.3538 78.8019 18.3538C78.2819 18.3538 77.8019 18.4672 77.3619 18.6938C76.9219 18.9205 76.5685 19.3072 76.3019 19.8538C76.0485 20.3872 75.9219 21.1138 75.9219 22.0338V22.2938C75.9219 23.2405 76.0885 23.9872 76.4219 24.5338C76.7685 25.0672 77.2419 25.4472 77.8419 25.6738C78.4552 25.9005 79.1485 26.0138 79.9219 26.0138C80.5885 26.0138 81.1619 25.9538 81.6419 25.8338C82.1352 25.7005 82.5219 25.5538 82.8019 25.3938H82.9819V27.2938C82.6352 27.4538 82.1952 27.5872 81.6619 27.6938C81.1419 27.8138 80.5152 27.8738 79.7819 27.8738ZM86.1522 27.6938V15.9138C86.1522 15.6472 86.1455 15.3005 86.1322 14.8738C86.1322 14.4472 86.1189 14.0338 86.0922 13.6338C86.0789 13.2205 86.0455 12.8938 85.9922 12.6538L86.0322 12.4938H88.3922V27.6938H86.1522ZM96.9711 27.8738C95.9711 27.8738 95.0844 27.7538 94.3111 27.5138C93.5511 27.2738 92.9111 26.9205 92.3911 26.4538C91.8711 25.9738 91.4778 25.3805 91.2111 24.6738C90.9578 23.9672 90.8311 23.1472 90.8311 22.2138C90.8311 21.0538 91.0444 20.0538 91.4711 19.2138C91.8978 18.3605 92.4978 17.7072 93.2711 17.2538C94.0444 16.7872 94.9578 16.5538 96.0111 16.5538C97.1978 16.5538 98.1578 16.8005 98.8911 17.2938C99.6244 17.7738 100.151 18.4538 100.471 19.3338C100.804 20.2005 100.944 21.2072 100.891 22.3538L100.871 22.9538H92.3311V21.3138H98.6311V21.1538C98.6311 20.2338 98.4111 19.5405 97.9711 19.0738C97.5311 18.5938 96.8711 18.3538 95.9911 18.3538C95.4711 18.3538 94.9911 18.4672 94.5511 18.6938C94.1111 18.9205 93.7578 19.3072 93.4911 19.8538C93.2378 20.3872 93.1111 21.1138 93.1111 22.0338V22.2938C93.1111 23.2405 93.2778 23.9872 93.6111 24.5338C93.9578 25.0672 94.4311 25.4472 95.0311 25.6738C95.6444 25.9005 96.3378 26.0138 97.1111 26.0138C97.7778 26.0138 98.3511 25.9538 98.8311 25.8338C99.3244 25.7005 99.7111 25.5538 99.9911 25.3938H100.171V27.2938C99.8244 27.4538 99.3844 27.5872 98.8511 27.6938C98.3311 27.8138 97.7044 27.8738 96.9711 27.8738ZM103.341 27.6938V20.7738C103.341 20.5072 103.335 20.1605 103.321 19.7338C103.321 19.3072 103.308 18.8938 103.281 18.4938C103.268 18.0805 103.235 17.7538 103.181 17.5138L103.221 17.3538C103.581 17.2205 104.015 17.1072 104.521 17.0138C105.028 16.9072 105.548 16.8272 106.081 16.7738C106.615 16.7072 107.095 16.6738 107.521 16.6738C107.815 16.6738 108.075 16.6805 108.301 16.6938C108.541 16.7072 108.755 16.7338 108.941 16.7738V18.6538H108.781C108.595 18.6138 108.375 18.5872 108.121 18.5738C107.881 18.5605 107.655 18.5538 107.441 18.5538C107.028 18.5538 106.601 18.5872 106.161 18.6538C105.721 18.7205 105.341 18.7938 105.021 18.8738L105.421 18.3138C105.528 18.7138 105.581 19.2872 105.581 20.0338V27.6938H103.341Z" fill="white"/>
<line x1="107.29" y1="3.62803" x2="113.149" y2="5.55909" stroke="#DEB714" stroke-width="1.85062"/>
<line x1="113.911" y1="0.289658" x2="111.98" y2="6.14834" stroke="#DEB714" stroke-width="1.85062"/>
</svg>
