<svg width="85" height="93" viewBox="0 0 85 93" fill="none" xmlns="http://www.w3.org/2000/svg">
<path d="M74.1021 55.32C71.3651 55.834 69.0781 56.679 66.7521 57.403C61.6451 58.994 59.1981 63.091 56.8731 67.389C55.5151 69.902 55.3551 72.665 54.9771 75.394C54.8161 76.554 54.5721 77.703 54.1961 78.853C53.4101 76.507 53.5351 74.002 52.8811 71.705C49.8671 61.128 46.0471 57.812 36.0531 56.051C35.6821 55.985 35.3071 55.933 34.8291 55.62C40.1821 54.156 45.7191 53.07 49.1751 48.15C52.4481 43.49 53.5501 38.136 54.0161 32.561C54.9971 34.215 54.8791 34.242 55.3401 37.61C55.9291 41.92 57.4241 45.935 60.2061 49.34C63.2561 53.074 67.6201 53.978 72.0851 54.608C72.6501 54.688 73.2991 54.52 74.1021 55.32Z" fill="#585858"/>
<path d="M24.5069 49.758C23.5629 41.249 20.4429 34.857 10.8979 33.761C13.3179 32.858 15.7929 32.54 17.8819 31.221C20.1049 29.82 21.5889 27.819 22.6089 25.422C23.5939 23.104 23.913 20.61 24.658 18.147C25.444 21.886 26.0429 25.66 28.3929 28.801C30.8559 32.093 34.581 32.679 38.471 33.414C29.129 34.889 25.3439 40.938 24.5069 49.758Z" fill="#585858"/>
<path d="M70.883 37.6609C69.575 37.6639 68.885 36.8849 68.916 35.6829C68.943 34.6299 69.254 33.4379 70.583 33.3209C72.19 33.1789 72.274 34.5959 72.478 35.6509C72.698 36.7919 72.141 37.5509 70.883 37.6609Z" fill="#585858"/>
</svg>
