<svg width="22" height="17" viewBox="0 0 22 17" fill="none" xmlns="http://www.w3.org/2000/svg">
<path d="M8.33333 3.16669C6.2 3.16669 3 4.63335 3 8.50002C3 12.3667 6.2 13.8334 8.33333 13.8334H9.66667V11.1667H8.33333C7.93333 11.1667 5.66667 11.0334 5.66667 8.50002C5.66667 6.10002 7.66667 5.83335 8.33333 5.83335H9.66667V3.16669M12.3333 3.16669V5.83335H13.6667C14.0667 5.83335 16.3333 5.96669 16.3333 8.50002C16.3333 10.9 14.3333 11.1667 13.6667 11.1667H12.3333V13.8334H13.6667C15.8 13.8334 19 12.3667 19 8.50002C19 4.63335 15.8 3.16669 13.6667 3.16669M7 7.16669V9.83335H15V7.16669H7Z" fill="#07C6F6"/>
</svg>
