<svg width="22" height="17" viewBox="0 0 22 17" fill="none" xmlns="http://www.w3.org/2000/svg">
<path d="M7.25 10.75C7.875 10.75 8.40625 10.5312 8.84375 10.0938C9.28125 9.65625 9.5 9.125 9.5 8.5C9.5 7.875 9.28125 7.34375 8.84375 6.90625C8.40625 6.46875 7.875 6.25 7.25 6.25C6.625 6.25 6.09375 6.46875 5.65625 6.90625C5.21875 7.34375 5 7.875 5 8.5C5 9.125 5.21875 9.65625 5.65625 10.0938C6.09375 10.5312 6.625 10.75 7.25 10.75ZM7.25 13C6 13 4.9375 12.5625 4.0625 11.6875C3.1875 10.8125 2.75 9.75 2.75 8.5C2.75 7.25 3.1875 6.1875 4.0625 5.3125C4.9375 4.4375 6 4 7.25 4C8.2625 4 9.147 4.2875 9.9035 4.8625C10.66 5.4375 11.188 6.15 11.4875 7H17.7687L19.25 8.48125L16.625 11.4813L14.75 10L13.25 11.5L11.75 10H11.4875C11.175 10.9 10.6313 11.625 9.85625 12.175C9.08125 12.725 8.2125 13 7.25 13Z" fill="#07C6F6"/>
</svg>
