<svg width="22" height="17" viewBox="0 0 22 17" fill="none" xmlns="http://www.w3.org/2000/svg">
<path d="M4.4 4.37502V6.02502C4.4 6.47877 4.02875 6.85002 3.575 6.85002H2.75V10.15H3.575C4.02875 10.15 4.4 10.5213 4.4 10.975V12.625C4.4 13.9863 5.51375 15.1 6.875 15.1H9.35V13.45H6.875C6.42125 13.45 6.05 13.0788 6.05 12.625V10.975C6.05 9.90252 5.357 8.97852 4.4 8.64027V8.35977C5.357 8.02152 6.05 7.09752 6.05 6.02502V4.37502C6.05 3.92127 6.42125 3.55002 6.875 3.55002H9.35V1.90002H6.875C5.51375 1.90002 4.4 3.01377 4.4 4.37502ZM18.425 6.85002C17.9712 6.85002 17.6 6.47877 17.6 6.02502V4.37502C17.6 3.01377 16.4862 1.90002 15.125 1.90002H12.65V3.55002H15.125C15.5787 3.55002 15.95 3.92127 15.95 4.37502V6.02502C15.95 7.09752 16.643 8.02152 17.6 8.35977V8.64027C16.643 8.97852 15.95 9.89427 15.95 10.975V12.625C15.95 13.0788 15.5787 13.45 15.125 13.45H12.65V15.1H15.125C16.4862 15.1 17.6 13.9863 17.6 12.625V10.975C17.6 10.5213 17.9712 10.15 18.425 10.15H19.25V6.85002H18.425Z" fill="#DEB714"/>
</svg>
