<svg width="22" height="18" viewBox="0 0 22 18" fill="none" xmlns="http://www.w3.org/2000/svg">
<path d="M16.278 9.29188L11.2919 14.2779C11.2536 14.3163 11.2081 14.3468 11.158 14.3676C11.1079 14.3883 11.0542 14.399 11 14.399C10.9458 14.399 10.8921 14.3883 10.842 14.3676C10.7919 14.3468 10.7464 14.3163 10.7081 14.2779L5.72204 9.29188C5.68366 9.25357 5.65321 9.20808 5.63244 9.15799C5.61166 9.1079 5.60097 9.05421 5.60097 8.99999C5.60097 8.94576 5.61166 8.89207 5.63244 8.84198C5.65321 8.7919 5.68366 8.7464 5.72204 8.70809L10.7107 3.72203C10.749 3.68365 10.7945 3.6532 10.8446 3.63242C10.8947 3.61165 10.9484 3.60095 11.0026 3.60095C11.0568 3.60095 11.1105 3.61165 11.1606 3.63242C11.2107 3.6532 11.2562 3.68365 11.2945 3.72203L16.2806 8.71069C16.3569 8.78829 16.3995 8.89294 16.399 9.00182C16.3986 9.1107 16.355 9.21497 16.278 9.29188Z" fill="#D0CD31"/>
<path d="M16.5719 8.41412L11.5833 3.42494C11.4276 3.27016 11.2169 3.18329 10.9974 3.18329C10.7779 3.18329 10.5672 3.27016 10.4115 3.42494L5.42547 8.41412C5.2707 8.56982 5.18382 8.78044 5.18382 8.99999C5.18382 9.21953 5.2707 9.43015 5.42547 9.58585L10.4141 14.575C10.5698 14.7298 10.7805 14.8167 11 14.8167C11.2195 14.8167 11.4302 14.7298 11.5859 14.575L16.5745 9.58585C16.7293 9.43015 16.8162 9.21953 16.8162 8.99999C16.8162 8.78044 16.7293 8.56982 16.5745 8.41412H16.5719ZM10.9974 13.9861L6.01134 8.99999L10.9974 4.01392L15.9835 8.99999L10.9974 13.9861Z" fill="#D0CD31"/>
</svg>
