<svg width="36" height="38" viewBox="0 0 36 38" fill="none" xmlns="http://www.w3.org/2000/svg">
<rect x="7.44434" y="7.48633" width="28.5557" height="26.7709" rx="2.67709" fill="#DEB714"/>
<path d="M14.62 23.5045C14.62 23.1045 14.5133 22.7645 14.3 22.4845C14.0867 22.2045 13.74 22.0645 13.26 22.0645H12.3V19.7445H13.26C13.74 19.7445 14.0867 19.6045 14.3 19.3245C14.5133 19.0445 14.62 18.7045 14.62 18.3045V15.7445C14.62 14.9712 14.7533 14.3445 15.02 13.8645C15.3 13.3712 15.6933 13.0112 16.2 12.7845C16.72 12.5445 17.3533 12.4245 18.1 12.4245H19.88V14.4845H18.4C17.9867 14.4845 17.6733 14.5912 17.46 14.8045C17.26 15.0178 17.16 15.3512 17.16 15.8045V18.4045C17.16 19.1245 16.9733 19.6978 16.6 20.1245C16.2267 20.5378 15.74 20.7912 15.14 20.8845V20.9245C15.74 21.0045 16.2267 21.2578 16.6 21.6845C16.9733 22.1112 17.16 22.6845 17.16 23.4045V26.0045C17.16 26.4578 17.26 26.7912 17.46 27.0045C17.6733 27.2178 17.9867 27.3245 18.4 27.3245H19.88V29.3845H18.1C17.3533 29.3845 16.72 29.2645 16.2 29.0245C15.6933 28.7978 15.3 28.4378 15.02 27.9445C14.7533 27.4645 14.62 26.8378 14.62 26.0645V23.5045ZM24.7194 27.3245C25.146 27.3245 25.4594 27.2178 25.6594 27.0045C25.8594 26.7912 25.9594 26.4578 25.9594 26.0045V23.4045C25.9594 22.6845 26.146 22.1112 26.5194 21.6845C26.906 21.2578 27.3994 21.0045 27.9994 20.9245V20.8845C27.3994 20.7912 26.906 20.5378 26.5194 20.1245C26.146 19.6978 25.9594 19.1245 25.9594 18.4045V15.8045C25.9594 15.3512 25.8594 15.0178 25.6594 14.8045C25.4594 14.5912 25.146 14.4845 24.7194 14.4845H23.2394V12.4245H25.0394C25.7727 12.4245 26.3994 12.5445 26.9194 12.7845C27.4394 13.0112 27.8327 13.3712 28.0994 13.8645C28.366 14.3445 28.4994 14.9712 28.4994 15.7445V18.3045C28.4994 18.7045 28.606 19.0445 28.8194 19.3245C29.0327 19.6045 29.3794 19.7445 29.8594 19.7445H30.8194V22.0645H29.8594C29.3794 22.0645 29.0327 22.2045 28.8194 22.4845C28.606 22.7645 28.4994 23.1045 28.4994 23.5045V26.0645C28.4994 26.8378 28.366 27.4645 28.0994 27.9445C27.8327 28.4378 27.4394 28.7978 26.9194 29.0245C26.3994 29.2645 25.7727 29.3845 25.0394 29.3845H23.2394V27.3245H24.7194Z" fill="white"/>
<line x1="0.289902" y1="3.62803" x2="6.14859" y2="5.55909" stroke="#DEB714" stroke-width="1.85062"/>
<line x1="6.91103" y1="0.289658" x2="4.97997" y2="6.14834" stroke="#DEB714" stroke-width="1.85062"/>
</svg>
