<svg width="40" height="40" viewBox="0 0 40 40" fill="none" xmlns="http://www.w3.org/2000/svg">
<path d="M9.22668 36.4767C9.49629 36.6169 9.799 36.6811 10.1023 36.6623C10.4056 36.6435 10.6981 36.5424 10.9483 36.37L32.615 21.37C32.8364 21.2166 33.0173 21.0119 33.1423 20.7733C33.2673 20.5347 33.3325 20.2693 33.3325 20C33.3325 19.7307 33.2673 19.4653 33.1423 19.2267C33.0173 18.9881 32.8364 18.7834 32.615 18.63L10.9483 3.63C10.6983 3.45699 10.4057 3.35567 10.1022 3.33703C9.79871 3.31839 9.4959 3.38312 9.22656 3.52423C8.95722 3.66534 8.73162 3.87744 8.57417 4.13756C8.41673 4.39769 8.33345 4.69593 8.33334 5V35C8.33329 35.3042 8.41652 35.6027 8.57399 35.863C8.73146 36.1233 8.95718 36.3355 9.22668 36.4767Z" fill="white"/>
</svg>
