<svg width="45" height="49" viewBox="0 0 45 49" fill="none" xmlns="http://www.w3.org/2000/svg">
<path d="M22.1144 43.3022C21.764 41.906 21.9292 40.4929 21.6322 39.1061C21.0784 36.5165 20.7502 33.8868 19.7575 31.3894C18.6574 28.6222 16.4736 27.2829 13.7709 26.6185C12.0964 26.207 10.407 25.766 8.64198 25.8503C8.31321 25.8661 7.97333 25.6548 7.65039 25.4583C9.12427 25.5057 10.5352 25.0995 11.9963 25.1137C15.6276 25.148 18.5653 23.3102 19.7019 20.0051C20.9302 16.4334 21.7137 12.8068 21.8534 9.03857C21.8672 8.66501 21.7539 8.25667 22.1065 7.80566C22.467 8.2788 22.3463 8.72455 22.3638 9.12972C22.5284 12.9375 23.2458 16.6309 24.6032 20.2021C25.8648 23.5204 28.4039 24.9209 31.8154 25.1311C33.591 25.2402 35.3587 25.4631 37.1296 25.638C37.2625 25.6511 37.3324 25.7444 37.3483 25.9394C35.0464 25.7839 32.7752 26.0605 30.495 26.2966C27.4769 26.608 25.8362 28.5717 24.6461 31.0074C23.3956 33.5665 23.1214 36.4048 22.5824 39.1651C22.3162 40.5334 22.4411 41.9297 22.1144 43.3022Z" fill="#585858"/>
</svg>
