<svg width="20" height="18" viewBox="0 0 20 18" fill="none" xmlns="http://www.w3.org/2000/svg">
<path d="M2.99999 1.18937L7.62855 5.81831L12.9319 11.1216L17.5603 15.75L16.4996 16.8106L14.2759 14.5869C12.9335 15.3283 11.3899 15.7501 9.7497 15.7501C5.56576 15.7501 2.02381 13.0099 0.816915 9.22815L0.744141 9.00007L0.816915 8.77207C1.39234 6.96901 2.49757 5.40428 3.94883 4.25981L1.93925 2.24995L2.99999 1.18937ZM5.01823 5.32931C3.7913 6.25297 2.84341 7.52647 2.32257 9.00007C3.40382 12.0595 6.32186 14.2501 9.7497 14.2501C10.9735 14.2501 12.1309 13.9714 13.163 13.4741L11.8178 12.1289C11.2251 12.5212 10.5139 12.7502 9.74992 12.7502C7.67887 12.7502 5.99992 11.0714 5.99992 9.00023C5.99992 8.23628 6.2289 7.52505 6.62126 6.93234L5.01823 5.32931ZM7.719 8.0301C7.57845 8.3238 7.49991 8.6526 7.49991 9.00023C7.49991 10.2429 8.50725 11.2502 9.74992 11.2502C10.0975 11.2502 10.4263 11.1717 10.72 11.0311L7.719 8.0301ZM9.75 3.75002C9.31755 3.75002 8.89372 3.78482 8.48107 3.85161L7.74075 3.97145L7.50105 2.49073L8.24137 2.37088C8.733 2.29131 9.23692 2.25002 9.75 2.25002C13.9339 2.25002 17.4759 4.99025 18.6828 8.772L18.7555 9L18.6828 9.22808C18.3726 10.1999 17.9085 11.1025 17.3194 11.9072L16.8764 12.5125L15.6661 11.6264L16.1091 11.0212C16.5577 10.4083 16.9196 9.72862 17.1771 9C16.0959 5.94062 13.1778 3.75002 9.75 3.75002ZM10.1349 5.19477L10.8518 5.41489C12.0374 5.77886 12.9715 6.71287 13.3354 7.89847L13.5556 8.61547L12.1216 9.05565L11.9015 8.33873C11.6835 7.62862 11.1217 7.06682 10.4116 6.84883L9.69465 6.62872L10.1349 5.19477Z" fill="#DCDCDC"/>
</svg>
