<svg width="18" height="18" viewBox="0 0 18 18" fill="none" xmlns="http://www.w3.org/2000/svg">
<path d="M1.5 1.5H5.30785C6.93077 1.5 8.25 2.81923 8.25 4.44208V8.25H4.44215C2.8192 8.25 1.5 6.93074 1.5 5.30779V1.5ZM3 3V5.30779C3 6.10235 3.64766 6.75 4.44215 6.75H6.75V4.44208C6.75 3.64768 6.10237 3 5.30785 3H3ZM12.6922 3C11.8976 3 11.25 3.64768 11.25 4.44208V6.75H13.5578C14.3524 6.75 15 6.10235 15 5.30779V3H12.6922ZM9.75 4.44208C9.75 2.81923 11.0692 1.5 12.6922 1.5H16.5V5.30779C16.5 6.93074 15.1808 8.25 13.5578 8.25H9.75V4.44208ZM4.44215 11.25C3.64766 11.25 3 11.8976 3 12.6922V15H5.30785C6.10237 15 6.75 14.3523 6.75 13.5579V11.25H4.44215ZM1.5 12.6922C1.5 11.0692 2.8192 9.75 4.44215 9.75H8.25V13.5579C8.25 15.1807 6.93077 16.5 5.30785 16.5H1.5V12.6922ZM9.75 9.75H13.5578C15.1808 9.75 16.5 11.0692 16.5 12.6922V16.5H12.6922C11.0692 16.5 9.75 15.1807 9.75 13.5579V9.75ZM11.25 11.25V13.5579C11.25 14.3523 11.8976 15 12.6922 15H15V12.6922C15 11.8976 14.3524 11.25 13.5578 11.25H11.25Z" fill="#DCDCDC"/>
</svg>
