<svg width="13" height="13" viewBox="0 0 13 13" fill="none" xmlns="http://www.w3.org/2000/svg">
<g clip-path="url(#clip0_105_1105)">
<path d="M11.104 3.16045C10.0706 1.73802 8.39372 0.8125 6.49984 0.8125C3.5606 0.8125 1.14269 3.04169 0.84347 5.902L0.787109 6.44069L1.86457 6.55341L1.92093 6.01467C2.16304 3.70026 4.12108 1.89583 6.49984 1.89583C8.14689 1.89583 9.59287 2.76081 10.4068 4.0625H8.39567V5.14583H12.1873V1.35417H11.104V3.16045ZM11.1352 6.44659L11.0788 6.98533C10.8367 9.29971 8.87862 11.1042 6.49984 11.1042C4.85282 11.1042 3.40685 10.2392 2.59297 8.9375H4.60403V7.85417H0.812362V11.6458H1.8957V9.83954C2.92917 11.262 4.60602 12.1875 6.49984 12.1875C9.43914 12.1875 11.857 9.95833 12.1562 7.098L12.2126 6.55931L11.1352 6.44659Z" fill="#E6E6E6"/>
</g>
<defs>
<clipPath id="clip0_105_1105">
<rect width="13" height="13" fill="white"/>
</clipPath>
</defs>
</svg>
