<svg width="89" height="89" viewBox="0 0 89 89" fill="none" xmlns="http://www.w3.org/2000/svg">
<circle cx="44.3112" cy="44.3112" r="44.3112" fill="#B89B19" fill-opacity="0.12"/>
<circle cx="44.6747" cy="43.9481" r="35.9574" fill="#B89B19" fill-opacity="0.65"/>
<circle cx="44.6744" cy="43.9478" r="27.9669" fill="#B89B19"/>
<path d="M45.401 39.4686C47.5574 39.4686 49.3055 37.7205 49.3055 35.5641C49.3055 33.4078 47.5574 31.6597 45.401 31.6597C43.2447 31.6597 41.4966 33.4078 41.4966 35.5641C41.4966 37.7205 43.2447 39.4686 45.401 39.4686Z" stroke="white" stroke-width="2" stroke-linecap="round" stroke-linejoin="round"/>
<path d="M45.4009 57.6896V39.4688" stroke="white" stroke-width="2" stroke-linecap="round" stroke-linejoin="round"/>
<path d="M36.2907 44.6743H32.3862C32.3862 48.1261 33.7574 51.4365 36.1982 53.8772C38.639 56.318 41.9494 57.6892 45.4011 57.6892C48.8529 57.6892 52.1633 56.318 54.604 53.8772C57.0448 51.4365 58.416 48.1261 58.416 44.6743H54.5115" stroke="white" stroke-width="2" stroke-linecap="round" stroke-linejoin="round"/>
</svg>
