<svg width="89" height="89" viewBox="0 0 89 89" fill="none" xmlns="http://www.w3.org/2000/svg">
<circle cx="44.3112" cy="44.3112" r="44.3112" fill="#B89B19" fill-opacity="0.12"/>
<circle cx="44.6747" cy="43.9481" r="35.9574" fill="#B89B19" fill-opacity="0.65"/>
<circle cx="44.6744" cy="43.9478" r="27.9669" fill="#B89B19"/>
<path d="M51.5 38.3335C53.8472 38.3335 55.75 36.4307 55.75 34.0835C55.75 31.7363 53.8472 29.8335 51.5 29.8335C49.1528 29.8335 47.25 31.7363 47.25 34.0835C47.25 36.4307 49.1528 38.3335 51.5 38.3335Z" stroke="white" stroke-width="2" stroke-linecap="round" stroke-linejoin="round"/>
<path d="M34.5 48.25C36.8472 48.25 38.75 46.3472 38.75 44C38.75 41.6528 36.8472 39.75 34.5 39.75C32.1528 39.75 30.25 41.6528 30.25 44C30.25 46.3472 32.1528 48.25 34.5 48.25Z" stroke="white" stroke-width="2" stroke-linecap="round" stroke-linejoin="round"/>
<path d="M51.5 58.1665C53.8472 58.1665 55.75 56.2637 55.75 53.9165C55.75 51.5693 53.8472 49.6665 51.5 49.6665C49.1528 49.6665 47.25 51.5693 47.25 53.9165C47.25 56.2637 49.1528 58.1665 51.5 58.1665Z" stroke="white" stroke-width="2" stroke-linecap="round" stroke-linejoin="round"/>
<path d="M38.1694 46.1392L47.8453 51.7775" stroke="white" stroke-width="2" stroke-linecap="round" stroke-linejoin="round"/>
<path d="M47.8311 36.2227L38.1694 41.861" stroke="white" stroke-width="2" stroke-linecap="round" stroke-linejoin="round"/>
</svg>
